<svg xmlns="http://www.w3.org/2000/svg" width="1024" height="1024" viewBox="0 0 1024 1024"><defs><linearGradient id="bg" x2="1" y2="1"><stop stop-color="#201020"/><stop offset=".5" stop-color="#070c17"/><stop offset="1" stop-color="#102d43"/></linearGradient><linearGradient id="fire" x2=".7" y2="1"><stop stop-color="#ff316a"/><stop offset="1" stop-color="#ffad55"/></linearGradient><linearGradient id="ice" x2="1" y2="1"><stop stop-color="#d3f5ff"/><stop offset="1" stop-color="#0099ef"/></linearGradient></defs><rect x="100" y="100" width="824" height="824" rx="184" fill="url(#bg)"/><rect x="103" y="103" width="818" height="818" rx="181" fill="none" stroke="#8cd9ff" stroke-opacity=".16" stroke-width="3"/><path d="M642 207 482 431 524 431 344 714 448 631 405 817 582 542 533 542 697 271 598 354Z" fill="url(#fire)"/><path d="m689 205-133 255 51-14-173 339 157-174-28-3 144-227-60 20 87-155Z" fill="url(#ice)"/><path d="m642 285-137 229 43-15-94 213 144-240-44 15Z" fill="#f5fcff"/><g fill="url(#fire)"><path d="m333 367 38-8 8 38-38 8zM281 521h28v28h-28zM409 271h22v22h-22z"/></g><g fill="url(#ice)"><path d="m690 548 38 9-9 38-38-9zM739 452h23v23h-23zM624 706h27v27h-27z"/></g></svg>
